<?xml version="1.0" encoding="UTF-8" standalone="no"?>
<!-- Created with Inkscape (http://www.inkscape.org/) -->

<svg
   width="35mm"
   height="35mm"
   viewBox="0 0 35 35"
   version="1.1"
   id="svg5"
   xml:space="preserve"
   sodipodi:docname="POOPY.svg"
   inkscape:version="1.2.2 (b0a8486, 2022-12-01)"
   xmlns:inkscape="http://www.inkscape.org/namespaces/inkscape"
   xmlns:sodipodi="http://sodipodi.sourceforge.net/DTD/sodipodi-0.dtd"
   xmlns:xlink="http://www.w3.org/1999/xlink"
   xmlns="http://www.w3.org/2000/svg"
   xmlns:svg="http://www.w3.org/2000/svg"><sodipodi:namedview
     id="namedview7"
     pagecolor="#ffffff"
     bordercolor="#666666"
     borderopacity="1.0"
     inkscape:showpageshadow="2"
     inkscape:pageopacity="0.0"
     inkscape:pagecheckerboard="0"
     inkscape:deskcolor="#d1d1d1"
     inkscape:document-units="mm"
     showgrid="false"
     inkscape:zoom="1.7840476"
     inkscape:cx="66.982517"
     inkscape:cy="68.664086"
     inkscape:window-width="1608"
     inkscape:window-height="795"
     inkscape:window-x="0"
     inkscape:window-y="25"
     inkscape:window-maximized="0"
     inkscape:current-layer="svg5" /><defs
     id="defs2"><linearGradient
       inkscape:collect="always"
       id="linearGradient2300"><stop
         style="stop-color:#008000;stop-opacity:1;"
         offset="0"
         id="stop2296" /><stop
         style="stop-color:#b9d485;stop-opacity:1;"
         offset="1"
         id="stop2298" /></linearGradient><linearGradient
       inkscape:collect="always"
       xlink:href="#linearGradient2300"
       id="linearGradient2302"
       x1="-0.1322915"
       y1="0.59321922"
       x2="34.983986"
       y2="35.741524"
       gradientUnits="userSpaceOnUse" /></defs><rect
     style="fill:url(#linearGradient2302);stroke:#4877a6;stroke-width:0.264583;fill-opacity:1"
     id="rect417"
     width="35.148308"
     height="35.296608"
     x="0"
     y="0" /><g
     id="g440"
     transform="translate(-219.24289,0.38688971)"
     sodipodi:insensitive="true"><path
       fill="#885742"
       d="m 251.45631,19.878146 a 4.1521062,4.1521064 0 0 0 -1.85208,-1.939395 5.9867269,5.9867273 0 0 0 -1.5875,-0.695855 c 0.40481,-1.481666 -0.16933,-2.661708 -0.97631,-3.542771 -1.19327,-1.291166 -2.43417,-1.47902 -2.43417,-1.47902 0.42862,-0.812271 0.55827,-1.748896 0.35983,-2.6458339 -0.20373,-0.9763125 -0.81491,-1.8150417 -1.68275,-2.3071667 -0.82021,-0.4841875 -1.83091,-0.7223125 -2.86808,-0.9181042 -0.49742,-0.089958 -2.59556,-0.3836459 -3.46604,-1.5875001 -0.70115,-0.9763125 -0.72231,-2.7331459 -0.91281,-3.2596667 -0.1905,-0.52652087 -0.8943,-0.3042709 -1.64836,0.2010833 -0.88106,0.5979584 -2.70669,2.4844376 -3.41048,4.3815001 a 6.5087499,6.5087502 0 0 0 -0.33866,3.6750626 c -0.56621,0.092604 -1.11919,0.2566456 -1.64307,0.4894796 -0.0423,0 -0.0847,0.02646 -0.12964,0.04498 -0.79375,0.328083 -2.49502,1.852083 -2.64584,4.193646 -0.0556,0.828146 0.0503,1.656291 0.30957,2.44475 -0.57944,0.150812 -1.13771,0.378354 -1.6563,0.679979 -0.60589,0.259292 -1.15887,0.629708 -1.62718,1.092729 -0.51594,0.637646 -0.89165,1.375834 -1.09802,2.169584 a 7.3009123,7.3009127 0 0 0 0.52916,5.230812 c 0.47625,0.918104 1.07421,1.764771 1.78329,2.518834 2.26219,2.325687 6.16744,3.204104 9.26042,3.704166 3.75444,0.619125 7.68615,0.402167 11.19981,-1.058333 5.2705,-2.174875 6.6728,-5.672667 6.87917,-6.659563 0.45773,-2.182812 -0.10319,-4.238625 -0.34396,-4.733397 z"
       id="path288"
       style="stroke-width:0.264583" /><path
       fill="#35220b"
       d="m 243.13781,24.577147 c -0.41539,0.211666 -0.83873,0.402166 -1.26471,0.5715 -0.28575,0.11377 -0.57414,0.216958 -0.86518,0.309562 -0.29105,0.09525 -0.58473,0.177271 -0.88107,0.264583 -0.59266,0.148167 -1.19591,0.256646 -1.80445,0.320146 -0.46038,0.05027 -0.92605,0.07408 -1.38907,0.07408 -1.22237,0 -2.43946,-0.17198 -3.61685,-0.505355 l -0.38629,-0.116416 a 14.583833,14.583834 0 0 1 -1.89177,-0.751417 l -0.36777,-0.182562 a 6.0118624,6.0118627 0 0 0 3.3655,4.05077 c 0.90752,0.420688 1.89706,0.635 2.89718,0.629709 1.01071,0.0079 2.01084,-0.198438 2.93423,-0.611188 a 5.7859082,5.7859085 0 0 0 3.32846,-4.085166 z"
       id="path290"
       style="stroke-width:0.264583" /><path
       fill="#ffffff"
       d="m 242.53985,23.812501 c -1.85208,0.325437 -3.72798,0.481541 -5.60652,0.468312 -1.87854,0.01058 -3.75443,-0.145521 -5.60652,-0.468312 a 0.57149999,0.57150002 0 0 0 -0.66939,0.672041 v 0.06615 a 13.646679,13.64668 0 0 0 6.27591,1.553104 c 0.46302,0 0.92869,-0.02381 1.38907,-0.07408 0.60854,-0.0635 1.21179,-0.171979 1.80445,-0.320146 0.29634,-0.07408 0.59002,-0.156104 0.88107,-0.264583 0.29104,-0.108479 0.57943,-0.195792 0.86518,-0.309563 0.42863,-0.17727 0.84932,-0.36777 1.26471,-0.5715 l 0.0582,-0.03175 0.0159,-0.07144 c 0.045,-0.314854 -0.17463,-0.605896 -0.49213,-0.650875 a 0.58737499,0.58737502 0 0 0 -0.17992,0.0026 z"
       id="path292"
       style="stroke-width:0.264583" /><g
       id="g302"
       transform="matrix(0.26458333,0,0,0.26458334,220,0)"><circle
         cx="80.129997"
         cy="69.489998"
         r="12.4"
         fill="#ffffff"
         id="circle294" /><ellipse
         cx="80.129997"
         cy="69.489998"
         fill="#35220b"
         rx="5.73"
         ry="5.8200002"
         id="ellipse296" /><circle
         cx="47.869999"
         cy="69.489998"
         r="12.4"
         fill="#ffffff"
         id="circle298" /><ellipse
         cx="47.869999"
         cy="69.489998"
         fill="#35220b"
         rx="5.73"
         ry="5.8200002"
         id="ellipse300" /></g></g></svg>
